# xmcd
#
# Track frame offsets:
#	150
#	11055
#	27380
#	40388
#	54736
#	69164
#	80196
#	95520
#	106734
#	123073
#
# Disc length: 1834 seconds
#
# Revision: 0
# Processed by: cddbd v1.4PL0 Copyright (c) Steve Scherf et al.
# Submitted via: dBpowerAMP V4.0
#
DISCID=7d07280a
DTITLE=Los Incomparables de Tijuana - Zona Caliente
DYEAR=1900
DGENRE=Banda
TTITLE0=01 - Se equivoco el pistolero
TTITLE1=02 - De Medellin a Caborca
TTITLE2=03 - Esta de parranda el jefe
TTITLE3=04 - Zona Caliente
TTITLE4=05 - La vibora
TTITLE5=06 - El ayudante
TTITLE6=07 - Las fronteras
TTITLE7=08 - Ni nombre tengo
TTITLE8=09 - De nada me espanto
TTITLE9=10 - Gato por liebre
EXTD=Necro Blue RIP
EXTT0=
EXTT1=
EXTT2=
EXTT3=
EXTT4=
EXTT5=
EXTT6=
EXTT7=
EXTT8=
EXTT9=
PLAYORDER=
